<?xml version="1.0" encoding="UTF-8" standalone="no"?>
<?xml version="1.0" encoding="UTF-8" standalone="no"?><!-- Created with Inkscape (http://www.inkscape.org/) -->

<svg
   width="256"
   height="256"
   viewBox="0 0 255.99999 255.99999"
   id="svg4180"
   version="1.1"
   inkscape:version="1.3.2 (091e20e, 2023-11-25, custom)"
   sodipodi:docname="icon.svg"
   inkscape:export-filename="icon-512.png"
   inkscape:export-xdpi="192"
   inkscape:export-ydpi="192"
   xmlns:inkscape="http://www.inkscape.org/namespaces/inkscape"
   xmlns:sodipodi="http://sodipodi.sourceforge.net/DTD/sodipodi-0.dtd"
   xmlns="http://www.w3.org/2000/svg"
   xmlns:svg="http://www.w3.org/2000/svg"
   xmlns:rdf="http://www.w3.org/1999/02/22-rdf-syntax-ns#"
   xmlns:cc="http://creativecommons.org/ns#"
   xmlns:dc="http://purl.org/dc/elements/1.1/">
  <defs
     id="defs4182" />
  <sodipodi:namedview
     id="base"
     pagecolor="#ffffff"
     bordercolor="#666666"
     borderopacity="1.0"
     inkscape:pageopacity="0.0"
     inkscape:pageshadow="2"
     inkscape:zoom="4"
     inkscape:cx="152.25"
     inkscape:cy="161.875"
     inkscape:document-units="px"
     inkscape:current-layer="layer1"
     showgrid="false"
     units="px"
     showborder="true"
     inkscape:window-width="3840"
     inkscape:window-height="2054"
     inkscape:window-x="-11"
     inkscape:window-y="-11"
     inkscape:window-maximized="1"
     inkscape:showpageshadow="2"
     inkscape:pagecheckerboard="0"
     inkscape:deskcolor="#d1d1d1"
     showguides="false">
    <inkscape:grid
       type="xygrid"
       id="grid4734"
       originx="0"
       originy="0"
       spacingy="1"
       spacingx="1"
       units="px"
       visible="false" />
  </sodipodi:namedview>
  <metadata
     id="metadata4185">
    <rdf:RDF>
      <cc:Work
         rdf:about="">
        <dc:format>image/svg+xml</dc:format>
        <dc:type
           rdf:resource="http://purl.org/dc/dcmitype/StillImage" />
        <dc:title />
      </cc:Work>
    </rdf:RDF>
  </metadata>
  <g
     inkscape:label="Layer 1"
     inkscape:groupmode="layer"
     id="layer1"
     transform="translate(0,-796.36223)">
    <circle
       style="fill:#f7f6f4;fill-opacity:1;stroke:none;stroke-width:1.99777651;stroke-miterlimit:4;stroke-dasharray:none;stroke-opacity:1"
       id="path4732"
       cx="127.99999"
       cy="924.36224"
       r="127.0011" />
    <path
       id="path4732-7"
       style="fill:#9b3928;fill-opacity:1;stroke:none;stroke-width:1.99778;stroke-miterlimit:4;stroke-dasharray:none;stroke-opacity:1"
       d="m 127.75586,844.18645 c -17.90667,0 -24.48108,3.62695 -40.121094,3.62695 -9.746672,0 -15.413485,-0.22841 -25.160157,-0.45508 v 8.38672 c 14.280007,0.45333 16.77487,3.17388 17.908203,11.56055 0.680001,22.89334 1.132813,39.43964 1.132813,55.98633 0,18.81334 -0.681119,37.85416 -1.814453,66.1875 -0.906667,7.02667 -4.305021,7.48025 -16.31836,7.93359 l 1.585938,9.29299 c 8.386671,-1.5866 17.000047,-2.4942 25.386719,-2.4942 9.746671,0 19.493561,1.1339 29.240231,3.1739 l 1.8125,-9.97269 c -12.46667,-1.13334 -18.13259,-2.26762 -18.58593,-10.6543 -0.90667,-18.36001 -1.58738,-33.99974 -2.72071,-55.75976 9.29334,0.22667 14.50745,1.13281 23.80078,1.13281 1.58667,0 3.39946,1.1e-4 5.43946,-0.22656 15.95259,36.43227 52.40992,76.7309 90.64843,79.6152 a 127.0011,127.0011 0 0 0 7.16211,-8.2285 c -30.19323,-0.4475 -51.44346,-30.52948 -78.3164,-75.9199 18.13335,-6.80001 34,-20.6256 34,-40.57227 0,-23.57335 -24.9334,-42.61328 -55.08008,-42.61328 z m -4.75977,9.51953 c 26.29335,0 40.11914,21.75927 40.11914,35.58594 0,12.24001 -6.57266,32.64062 -39.66601,32.64062 -9.29334,0 -14.05432,-0.67959 -23.34766,-0.90625 -0.453333,-17.45334 -0.906978,-38.30631 0.67969,-55.98633 0.90667,-9.74667 15.18817,-11.33398 22.21484,-11.33398 z" />
  </g>
</svg>
