<?xml version="1.0" encoding="UTF-8" standalone="no"?>
<!-- Created with Inkscape (http://www.inkscape.org/) -->

<svg
   width="256"
   height="256"
   viewBox="0 0 255.99999 255.99999"
   id="svg4180"
   version="1.1"
   inkscape:version="1.3.2 (091e20e, 2023-11-25, custom)"
   sodipodi:docname="icon.svg"
   inkscape:export-filename="icon-512.png"
   inkscape:export-xdpi="192"
   inkscape:export-ydpi="192"
   xmlns:inkscape="http://www.inkscape.org/namespaces/inkscape"
   xmlns:sodipodi="http://sodipodi.sourceforge.net/DTD/sodipodi-0.dtd"
   xmlns="http://www.w3.org/2000/svg"
   xmlns:svg="http://www.w3.org/2000/svg"
   xmlns:rdf="http://www.w3.org/1999/02/22-rdf-syntax-ns#"
   xmlns:cc="http://creativecommons.org/ns#"
   xmlns:dc="http://purl.org/dc/elements/1.1/">
  <defs
     id="defs4182" />
  <sodipodi:namedview
     id="base"
     pagecolor="#ffffff"
     bordercolor="#666666"
     borderopacity="1.0"
     inkscape:pageopacity="0.0"
     inkscape:pageshadow="2"
     inkscape:zoom="5.6568543"
     inkscape:cx="112.2532"
     inkscape:cy="144.33817"
     inkscape:document-units="px"
     inkscape:current-layer="layer1"
     showgrid="false"
     units="px"
     showborder="true"
     inkscape:window-width="3840"
     inkscape:window-height="2054"
     inkscape:window-x="-11"
     inkscape:window-y="-11"
     inkscape:window-maximized="1"
     inkscape:showpageshadow="2"
     inkscape:pagecheckerboard="0"
     inkscape:deskcolor="#d1d1d1"
     showguides="false">
    <inkscape:grid
       type="xygrid"
       id="grid4734"
       originx="0"
       originy="0"
       spacingy="1"
       spacingx="1"
       units="px"
       visible="false" />
  </sodipodi:namedview>
  <metadata
     id="metadata4185">
    <rdf:RDF>
      <cc:Work
         rdf:about="">
        <dc:format>image/svg+xml</dc:format>
        <dc:type
           rdf:resource="http://purl.org/dc/dcmitype/StillImage" />
        <dc:title />
      </cc:Work>
    </rdf:RDF>
  </metadata>
  <g
     inkscape:label="Layer 1"
     inkscape:groupmode="layer"
     id="layer1"
     transform="translate(0,-796.36223)">
    <circle
       style="fill:#f7f6f4;fill-opacity:1;stroke:none;stroke-width:1.82815;stroke-miterlimit:4;stroke-dasharray:none;stroke-opacity:1"
       id="path4732"
       cx="127.99999"
       cy="924.36224"
       r="116.21771" />
    <path
       id="path4732-7"
       style="fill:#9b3928;fill-opacity:1;stroke:none;stroke-width:1.83273;stroke-miterlimit:4;stroke-dasharray:none;stroke-opacity:1"
       d="m 127.73759,850.80268 c -16.4272,0 -22.45843,3.32729 -36.806247,3.32729 -8.941391,0 -14.140005,-0.20955 -23.081395,-0.41747 v 7.6938 c 13.100175,0.41587 15.388909,2.91164 16.428606,10.6054 0.623819,21.00186 1.039219,36.18108 1.039219,51.36067 0,17.25895 -0.624845,34.7266 -1.664541,60.71902 -0.831758,6.44611 -3.949335,6.8622 -14.970119,7.27809 l 1.454907,8.52522 c 7.693754,-1.4555 15.595482,-2.28813 23.289238,-2.28813 8.941382,0 17.882982,1.04028 26.824372,2.91173 l 1.66274,-9.14882 c -11.43665,-1.0397 -16.63445,-2.08026 -17.05032,-9.77402 -0.83177,-16.84309 -1.45624,-31.19063 -2.49593,-51.15282 8.52551,0.20794 13.30883,1.03921 21.83433,1.03921 1.45557,0 3.11859,10e-5 4.99004,-0.20784 14.63457,33.42219 48.07975,70.39129 83.15896,73.03729 a 116.50811,116.50811 0 0 0 6.57036,-7.54864 c -27.69863,-0.41052 -47.19314,-28.0071 -71.84581,-69.64731 16.63516,-6.23819 31.19089,-18.9215 31.19089,-37.22015 0,-21.62568 -22.87337,-39.09252 -50.5293,-39.09252 z m -4.36651,8.73301 c 24.12095,0 36.80445,19.96151 36.80445,32.6458 0,11.22872 -6.02962,29.94381 -36.38876,29.94381 -8.52552,0 -12.89314,-0.62344 -21.41865,-0.83137 -0.41588,-16.01132 -0.83205,-35.14141 0.62353,-51.36068 0.83176,-8.94139 13.93331,-10.39756 20.37943,-10.39756 z" />
  </g>
</svg>
